<?xml version="1.0" standalone="no"?><svg xmlns="http://www.w3.org/2000/svg" viewBox="0 0 1440 320"><path fill="#987070" fill-opacity="1" d="M0,192L8,192C16,192,32,192,48,181.3C64,171,80,149,96,154.7C112,160,128,192,144,192C160,192,176,160,192,144C208,128,224,128,240,128C256,128,272,128,288,154.7C304,181,320,235,336,218.7C352,203,368,117,384,85.3C400,53,416,75,432,101.3C448,128,464,160,480,165.3C496,171,512,149,528,117.3C544,85,560,43,576,58.7C592,75,608,149,624,154.7C640,160,656,96,672,69.3C688,43,704,53,720,64C736,75,752,85,768,101.3C784,117,800,139,816,138.7C832,139,848,117,864,101.3C880,85,896,75,912,74.7C928,75,944,85,960,90.7C976,96,992,96,1008,128C1024,160,1040,224,1056,256C1072,288,1088,288,1104,272C1120,256,1136,224,1152,224C1168,224,1184,256,1200,245.3C1216,235,1232,181,1248,165.3C1264,149,1280,171,1296,160C1312,149,1328,107,1344,85.3C1360,64,1376,64,1392,96C1408,128,1424,192,1432,224L1440,256L1440,320L1432,320C1424,320,1408,320,1392,320C1376,320,1360,320,1344,320C1328,320,1312,320,1296,320C1280,320,1264,320,1248,320C1232,320,1216,320,1200,320C1184,320,1168,320,1152,320C1136,320,1120,320,1104,320C1088,320,1072,320,1056,320C1040,320,1024,320,1008,320C992,320,976,320,960,320C944,320,928,320,912,320C896,320,880,320,864,320C848,320,832,320,816,320C800,320,784,320,768,320C752,320,736,320,720,320C704,320,688,320,672,320C656,320,640,320,624,320C608,320,592,320,576,320C560,320,544,320,528,320C512,320,496,320,480,320C464,320,448,320,432,320C416,320,400,320,384,320C368,320,352,320,336,320C320,320,304,320,288,320C272,320,256,320,240,320C224,320,208,320,192,320C176,320,160,320,144,320C128,320,112,320,96,320C80,320,64,320,48,320C32,320,16,320,8,320L0,320Z"></path></svg>